<svg width="49" height="48" viewBox="0 0 49 48" fill="none" xmlns="http://www.w3.org/2000/svg">
<ellipse cx="24" cy="23.5" rx="17" ry="16.5" fill="white"/>
<g clip-path="url(#clip0_6_54)">
<path d="M20.3749 30.7917C15.1666 32.3542 15.1666 28.1875 13.0833 27.6667M27.6666 33.9167V29.8854C27.7057 29.3887 27.6386 28.8894 27.4697 28.4206C27.3009 27.9519 27.0342 27.5244 26.6874 27.1667C29.9583 26.8021 33.3958 25.5625 33.3958 19.875C33.3955 18.4207 32.8361 17.0221 31.8333 15.9687C32.3081 14.6964 32.2745 13.2899 31.7395 12.0417C31.7395 12.0417 30.5103 11.6771 27.6666 13.5833C25.2791 12.9363 22.7624 12.9363 20.3749 13.5833C17.5312 11.6771 16.302 12.0417 16.302 12.0417C15.767 13.2899 15.7334 14.6964 16.2083 15.9687C15.198 17.0299 14.638 18.4411 14.6458 19.9062C14.6458 25.5521 18.0833 26.7917 21.3541 27.1979C21.0114 27.5521 20.7471 27.9744 20.5784 28.4374C20.4097 28.9005 20.3403 29.3938 20.3749 29.8854V33.9167" stroke="#1E1E1E" stroke-width="2.5" stroke-linecap="round" stroke-linejoin="round"/>
</g>
<defs>
<clipPath id="clip0_6_54">
<rect width="25" height="25" fill="white" transform="translate(11 11)"/>
</clipPath>
</defs>
</svg>
