<svg width="1440" height="230" viewBox="0 0 1440 230" fill="none" xmlns="http://www.w3.org/2000/svg">
<path d="M0 55.3184L34.4 62.7891C68.8 70.1161 137.6 85.0574 206.08 74.426C274.72 63.9384 342.88 28.0217 411.52 11.5C480 -5.02162 548.8 -2.14828 617.28 10.0634C685.92 22.275 754.08 43.825 822.72 47.8477C891.2 52.014 960 38.5094 1028.48 28.74C1097.12 18.9707 1165.28 12.6494 1233.92 17.6777C1302.4 22.706 1371.2 39.084 1405.6 47.1294L1440 55.3184V230.592H1405.6C1371.2 230.592 1302.4 230.592 1233.92 230.592C1165.28 230.592 1097.12 230.592 1028.48 230.592C960 230.592 891.2 230.592 822.72 230.592C754.08 230.592 685.92 230.592 617.28 230.592C548.8 230.592 480 230.592 411.52 230.592C342.88 230.592 274.72 230.592 206.08 230.592C137.6 230.592 68.8 230.592 34.4 230.592H0V55.3184Z" fill="#1752F0"/>
<path d="M0 132.898L34.4 136.49C68.8 140.082 137.6 147.265 206.08 150.857C274.72 154.448 342.88 154.448 411.52 143.386C480 132.467 548.8 110.343 617.28 104.165C685.92 97.9874 754.08 107.469 822.72 109.481C891.2 111.348 960 105.602 1028.48 107.469C1097.12 109.481 1165.28 118.963 1233.92 112.785C1302.4 106.607 1371.2 84.4827 1405.6 73.5641L1440 62.5017V230.592H1405.6C1371.2 230.592 1302.4 230.592 1233.92 230.592C1165.28 230.592 1097.12 230.592 1028.48 230.592C960 230.592 891.2 230.592 822.72 230.592C754.08 230.592 685.92 230.592 617.28 230.592C548.8 230.592 480 230.592 411.52 230.592C342.88 230.592 274.72 230.592 206.08 230.592C137.6 230.592 68.8 230.592 34.4 230.592H0V132.898Z" fill="#0571F5"/>
<path d="M0 187.492L34.4 177.435C68.8 167.378 137.6 147.265 206.08 139.363C274.72 131.462 342.88 135.772 411.52 149.42C480 163.068 548.8 186.055 617.28 197.548C685.92 209.042 754.08 209.042 822.72 197.261C891.2 185.624 960 162.063 1028.48 157.034C1097.12 152.006 1165.28 165.511 1233.92 177.004C1302.4 188.497 1371.2 197.979 1405.6 202.864L1440 207.605V230.592H1405.6C1371.2 230.592 1302.4 230.592 1233.92 230.592C1165.28 230.592 1097.12 230.592 1028.48 230.592C960 230.592 891.2 230.592 822.72 230.592C754.08 230.592 685.92 230.592 617.28 230.592C548.8 230.592 480 230.592 411.52 230.592C342.88 230.592 274.72 230.592 206.08 230.592C137.6 230.592 68.8 230.592 34.4 230.592H0V187.492Z" fill="#368BF3"/>
</svg>
